# xmcd
#
# Track frame offsets:
#	187
#	14292
#	35077
#	49872
#	64925
#	81750
#	99132
#	112302
#	124480
#	139067
#
# Disc length: 2170 seconds
#
# Revision: 3
# Processed by: cddbd v1.5.1PL0 Copyright (c) Steve Scherf et al.
# Submitted via: audiograbber 1.83.01
#
DISCID=8d08780a
DTITLE=Ray Stevens - I Never Made a Record I Didn't Like
DYEAR=1988
DGENRE=Comedy
TTITLE0=Surfin' U.S.S.R.
TTITLE1=The Booger Man
TTITLE2=Mama's in the Sky With Elvis
TTITLE3=Language, Nudity, Violence and Sex
TTITLE4=Bad
TTITLE5=The Day I Tried to Teach Charlene MacKenzie How to Drive
TTITLE6=Blood and Suede
TTITLE7=Ethelene (The Truck Stop Queen)
TTITLE8=I Dont Need None of That
TTITLE9=Old Hippie Class Reunion
EXTD=LABEL =MCA Records, Inc.\nID =MCAD-42172\nUPC =07674-22172-28\nCOPYRIGH
EXTD=T =1988
EXTT0=
EXTT1=
EXTT2=
EXTT3=
EXTT4=
EXTT5=
EXTT6=
EXTT7=
EXTT8=
EXTT9=
PLAYORDER=
